<?xml version="1.0" encoding="UTF-8" standalone="no"?>
<svg
    version="1.1"
    xmlns="http://www.w3.org/2000/svg"
    xmlns:xlink="http://www.w3.org/1999/xlink"
    x="0px"
    y="0px"
    width="64px"
    height="64px"
    viewBox="0 0 64 64"
    style="enable-background:new 0 0 64 64"
    xml:space="preserve">
  <g>
    <rect
        style="opacity:0;fill:#ffffff"
        width="64"
        height="64"/>
    <circle
        style="opacity:0.2;fill:none;stroke:#ffffff;stroke-opacity:1;stroke-width:2;stroke-miterlimit:4;stroke-dasharray:none"
        cx="32"
        cy="32"
        r="24"/>
    <path
        style="fill:#ffffff;stroke-width:0"
        d="M 28.46611,43 H 28.44073 C 27.83965,42.9909 27.272618,42.664 26.886342,42.1 L 19.1,30.819337 c -0.191281,-0.276737 0.04332,-0.93 0.326828,-1.116433 0.283517,-0.1861 0.965214,-0.195319 1.155876,0.08142 L 27.913315,40.629 c 0.16,0.230816 0.353467,0.368583 0.546605,0.371 0.278195,0 0.41378,-0.265627 0.557757,-0.355 L 43.44965,21.035359 c 0.198709,-0.270695 0.902641,-0.306581 1.179967,-0.111415 0.277945,0.194562 0.453774,0.76186 0.253827,1.033159 l -14.86,20.19335 C 29.624318,42.691239 29.058523,43 28.46611,43 Z"/>
  </g>
</svg>
