<?xml version="1.0" encoding="utf-8" standalone="no"?>
<svg version="1.1" viewBox="0 0 64 64" xmlns="http://www.w3.org/2000/svg">
  <rect style="opacity:0;fill:#ffffff" width="64" height="64"/>
  <circle style="opacity:0.2;fill:none;stroke:#ffffff;stroke-width:2;stroke-opacity:1" cx="32" cy="32" r="24"/>
  <path style="fill:#ffffff" d="M 28.46,43 C 27.84,43 27.3,42.46 26.9,42.1 L 19.1,30.82 c -0.19,-0.28 0,-0.93 0.33,-1.12 0.28,-0.19 0.97,-0.19 1.15,0 l 7.33,10.93 c 0.16,0.23 0.35,0.37 0.55,0.37 0.28,0 0.41,-0.27 0.56,-0.36 L 43.45,21 c 0.2,-0.27 0.9,-0.3 1.18,-0.11 0.28,0.19 0.45,0.76 0.25,1 L 30.02,42.09 C 29.62,42.69 29.06,43 28.47,43 z"/>
</svg>
