<?xml version="1.0" encoding="utf-8" standalone="no"?>
<svg version="1.1" viewBox="0 0 32 32" xmlns="http://www.w3.org/2000/svg">
  <rect style="fill:none;opacity:0" width="32" height="32"/>
  <g style="fill:#ffffff">
    <path style="opacity:0.6" d="m 16,1.5 c -5.15,0 -9.3,4.15 -9.3,9.3 V 13 h 4 v -2.2 c 0,-3 2.5,-5.3 5.3,-5.3 2.5,0 5.3,2.2 5.3,5.3 V 13 h 4 V 10.8 C 25.3,5.65 21.15,1.5 16,1.5 Z"/>
    <path d="m 28,29.3 c 0,0.66 -0.54,1.2 -1.2,1.2 H 5.2 C 4.54,30.5 4,29.96 4,29.3 V 14.2 C 4,13.54 4.54,13 5.2,13 h 21.6 c 0.66,0 1.2,0.54 1.2,1.2 z"/>
  </g>
</svg>
