<?xml version="1.0" encoding="utf-8" standalone="no"?>
<svg version="1.1" viewBox="0 0 32 32" xmlns="http://www.w3.org/2000/svg">
  <g style="fill:#ffffff">
    <rect style="opacity:0" width="32" height="32"/>
    <path d="m 28,28.937 c 0,0.735 -0.527,1.562 -1.26,1.562 H 5.44 c -0.733,0 -1.44,-0.827 -1.44,-1.562 L 4,14.215 C 4,13.479 4.706,12.812 5.44,12.812 h 21.3 c 0.733,0 1.26,0.666 1.26,1.4 z"/>
    <path  style="opacity:0.6" d="m 16,1.5 c -5.152,0 -9.297,4.015 -9.297,9.369 v 1.944 h 4.081 v -1.944 c 0,-4.015 2.276,-5.354 5.215,-5.354 2.94,0 5.216,1.3381 5.216,5.354 v 1.944 h 4.081 v -1.944 c 0,-5.354 -4.145,-9.369 -9.297,-9.369 z"/>
  </g>
</svg>
