<?xml version="1.0" encoding="utf-8" standalone="no"?>
<svg version="1.1" viewBox="0 0 64 64" xmlns="http://www.w3.org/2000/svg">
  <g style="fill:#ffffff">
    <rect style="opacity:0" width="64" height="64"/>
    <path style="opacity:0.6" d="M 52.72,39.62 H 42.93 L 48.7,27.23 c 0.77,-1.66 -0.38,-3.02 -2.57,-3.02 -5.27,0 -10.55,0 -15.82,0 -2.19,0 -1.03,-1.62 -0.11,-3.6 L 35.46,9.44 C 36.39,7.46 34.77,7 32.59,7 h -4.75 c -2.18,0 -4.15,0.46 -5.07,2.44 l -8.34,17.8 c -0.77,1.66 0.38,3.02 2.57,3.02 h 18.57 c 2.19,0 1.03,1.62 0.11,3.6 l -2.69,5.76 h -11 c -2.18,0 -2.06,1.31 -1.03,3.24 l 6.84,12.65 c 1.02,1.93 2.91,1.85 4.72,0.62 L 53.41,41.86 c 1.81,-1.23 1.5,-2.24 -0.69,-2.24 z"/>
    <path d="m 11.19,8.62 c 0.95,-0.95 2.49,-0.95 3.44,0 L 54.17,48.17 c 0.95,0.95 0.95,2.49 0,3.44 l -1.36,1.36 c -0.95,0.95 -2.45,0.95 -3.44,0 L 9.83,13.42 C 8.88,12.47 8.88,10.92 9.83,9.98 z"/>
  </g>
</svg>
