<?xml version="1.0" encoding="UTF-8" standalone="no"?>
<svg
   xmlns:svg="http://www.w3.org/2000/svg"
   xmlns="http://www.w3.org/2000/svg"
   xmlns:sodipodi="http://sodipodi.sourceforge.net/DTD/sodipodi-0.dtd"
   xmlns:inkscape="http://www.inkscape.org/namespaces/inkscape"
   version="1.1"
   width="64"
   height="64"
   viewBox="0 0 64 64"
   xml:space="preserve"
   sodipodi:docname="flash-off.svg"
   inkscape:version="0.92.4 (unknown)">
  <rect
      style="opacity:0;fill:#ffffff"
      width="64"
      height="64"
      x="0"
      y="0"/>
  <g
      transform="matrix(1.3898563,0,0,1.3898563,-12.475403,9.7622985)">
    <path
        style="opacity:0.5;fill:#ffffff"
        d="m 46.908,21.48353 h -7.043 l 1.935,-4.151 c 0.665,-1.425 1.663,-3.569 2.22,-4.761 0.556,-1.192 -0.275,-2.17 -1.849,-2.17 h -3.136 c -1.573,0 -4.147,0 -5.718,0 h -2.526 c -1.574,0 -0.743,-1.165 -0.078,-2.591 l 3.778,-8.043 C 35.156,-1.6574704 33.995,-1.9874704 32.423,-1.9874704 h -3.417 c -1.572,0 -2.983,0.33 -3.648,1.755 l -3.78,8.043 c -0.665,1.425 -1.664,3.568 -2.22,4.761 -0.555,1.192 0.276,2.17 1.849,2.17 h 5.12 c 1.571,0 4.146,0 5.719,0 h 2.525 c 1.573,0 0.743,1.166 0.078,2.591 l -1.935,4.15 h -7.919 c -1.572,0 -1.483,0.934 -0.743,2.321 l 4.92,9.103 c 0.739,1.388 2.095,1.33 3.393,0.444 l 15.04,-10.256 c 1.3,-0.887 1.077,-1.611 -0.497,-1.611 z"
        inkscape:connector-curvature="0"/>
    <path
        style="fill:#ffffff"
        d="m 17.027,-0.81947035 c 0.681,-0.68 1.795,-0.68 2.475,0.001 L 47.951,27.63253 c 0.681,0.681 0.68,1.794 -10e-4,2.474 l -0.976,0.975 c -0.681,0.68 -1.795,0.68 -2.475,-0.001 L 16.049,2.6305296 c -0.681,-0.681 -0.68,-1.794 0.001,-2.474 z"
        inkscape:connector-curvature="0"/>
  </g>
</svg>
