<?xml version="1.0" encoding="UTF-8" standalone="no"?>
<svg
   xmlns:svg="http://www.w3.org/2000/svg"
   xmlns="http://www.w3.org/2000/svg"
   xmlns:sodipodi="http://sodipodi.sourceforge.net/DTD/sodipodi-0.dtd"
   xmlns:inkscape="http://www.inkscape.org/namespaces/inkscape"
   version="1.1"
   width="64"
   height="64"
   viewBox="0 0 64 64"
   xml:space="preserve"
   sodipodi:docname="flash-on.svg"
   inkscape:version="0.92.4 (unknown)">
  <rect
      style="opacity:0;fill:#ffffff"
      width="64"
      height="64"
      x="0"
      y="0"/>
  <g
      transform="matrix(1.41979,0,0,1.41979,-2.87438,-2.0746382)">
    <path
        style="fill:#ffffff"
        d="m 38.788,29.334 h -6.884 l 1.891,-4.058 c 0.65,-1.393 1.626,-3.489 2.17,-4.654 0.543,-1.165 -0.269,-2.121 -1.807,-2.121 h -3.065 c -1.538,0 -4.053,0 -5.59,0 h -2.469 c -1.538,0 -0.726,-1.139 -0.076,-2.532 L 26.645,8.12 C 27.295,6.727 26.167,6.391 24.63,6.391 h -3.321 c -1.537,0 -2.923,0.336 -3.573,1.729 0,0 -5.315,11.337 -5.859,12.502 -0.543,1.165 0.269,2.121 1.807,2.121 h 4.986 c 1.536,0 4.053,0 5.59,0 h 2.469 c 1.538,0 0.726,1.14 0.077,2.533 l -1.892,4.056 h -7.761 c -1.537,0 -1.463,0.847 -0.74,2.204 l 4.839,9.076 c 0.723,1.357 2.052,1.188 3.32,0.321 L 39.273,30.908 c 1.271,-0.866 1.053,-1.574 -0.485,-1.574 z"
        inkscape:connector-curvature="0"/>
  </g>
</svg>
