<?xml version="1.0" encoding="utf-8" standalone="no"?>
<svg version="1.1" viewBox="0 0 86 86" xmlns="http://www.w3.org/2000/svg">
  <defs>
    <linearGradient id="gradient" x1="12.8" y1="73.2" x2="73.2" y2="12.8" gradientUnits="userSpaceOnUse">
      <stop offset="0" style="stop-color:#e65100;stop-opacity:1"/>
      <stop offset="1" style="stop-color:#f57c00;stop-opacity:1"/>
    </linearGradient>
  </defs>
  <rect style="fill:none;opacity:0" width="86" height="86"/>
  <circle style="fill:url(#gradient)" cx="43" cy="43" r="42.7"/>
  <circle style="fill:#fff9c4;opacity:0.8" cx="43" cy="43" r="32"/>
  <path style="fill:#942a09" d="m 43,24.18 c -6.75,0 -12.18,5.26 -12.18,12.28 v 2.37 h -1.68 c -0.96,0 -1.89,0.87 -1.89,1.84 v 19.29 c 0,0.96 0.93,2.05 1.89,2.05 h 27.95 c 0.96,0 1.66,-1.08 1.66,-2.05 v -19.3 c 0,-0.96 -0.7,-1.84 -1.66,-1.84 H 55.18 V 36.45 C 55.18,29.44 49.75,24.18 43,24.18 Z m 0,5.26 c 3.85,0 6.83,1.75 6.83,7.01 v 2.37 H 36.17 v -2.37 c 0,-5.26 2.98,-7.01 6.83,-7.01 z m 0,15.81 c 2.21,0 3.65,1.83 3.65,3.65 0,1.3 -0.7,2.52 -1.85,3.18 L 46.5,55.74 c 0.38,0.84 -0.11,1.51 -0.75,1.51 h -5.5 c -0.67,0 -1.21,-0.7 -0.75,-1.51 l 1.7,-3.66 C 40.03,51.36 39.35,50.22 39.35,48.9 c 0,-1.85 1.48,-3.65 3.65,-3.65 z"/>
</svg>
