<?xml version="1.0" encoding="UTF-8" standalone="no"?>
<svg
   xmlns:dc="http://purl.org/dc/elements/1.1/"
   xmlns:cc="http://creativecommons.org/ns#"
   xmlns:rdf="http://www.w3.org/1999/02/22-rdf-syntax-ns#"
   xmlns:svg="http://www.w3.org/2000/svg"
   xmlns="http://www.w3.org/2000/svg"
   xmlns:sodipodi="http://sodipodi.sourceforge.net/DTD/sodipodi-0.dtd"
   xmlns:inkscape="http://www.inkscape.org/namespaces/inkscape"
   version="1.1"
   x="0px"
   y="0px"
   width="86px"
   height="86px"
   viewBox="0 0 86 86"
   style="enable-background:new 0 0 86 86;"
   xml:space="preserve"
   sodipodi:docname="foilauth.svg"
   inkscape:version="0.92.4 (unknown)">
  <metadata>
    <rdf:RDF>
      <cc:Work
          rdf:about="">
        <dc:format>image/svg+xml</dc:format>
        <dc:type
            rdf:resource="http://purl.org/dc/dcmitype/StillImage" />
        <dc:title/>
      </cc:Work>
    </rdf:RDF>
  </metadata>
  <g>
    <rect
        style="opacity:0;fill:#FFFFFF;"
        width="86"
        height="86"/>
    <circle
        style="fill:#e65100;fill-opacity:1"
        cx="43"
        cy="43"
        r="42.7"/>
    <g>
      <circle
          style="opacity:0.9;fill:#fff9c4;fill-opacity:1"
          cx="43"
          cy="43"
          r="32.025"/>
    </g>
  </g>
  <path
      style="fill:#942a09;fill-opacity:1;stroke-width:0.66618747"
      d="M 58.748006,59.952809 C 58.748006,60.916777 58.044512,62 57.083869,62 H 29.138637 c -0.960643,0 -1.886644,-1.083223 -1.886644,-2.047191 v -19.29146 c 0,-0.964637 0.925335,-1.838007 1.886644,-1.838007 h 27.945232 c 0.960643,0 1.664137,0.872702 1.664137,1.838007 z"
      inkscape:connector-curvature="0"/>
  <path
      style="opacity:1;fill:#942a09;fill-opacity:1;stroke-width:0.66618747"
      d="m 43,24.17599 c -6.750477,0 -12.181905,5.261545 -12.181905,12.276503 V 39 h 5.348153 v -2.547507 c 0,-5.261546 2.982522,-7.014958 6.833752,-7.014958 3.851896,0 6.834416,1.753412 6.834416,7.014958 V 39 H 55.18257 V 36.452493 C 55.18257,29.437535 49.751812,24.17599 43,24.17599 Z"
      inkscape:connector-curvature="0"/>
  <path
      style="fill:#fff9c4;fill-opacity:1;stroke-width:0.07019094"
      d="m 40.000388,57.117146 c -0.445281,-0.271548 -0.719263,-0.843073 -0.620562,-1.294524 0.02677,-0.122234 0.447171,-1.021863 0.93431,-1.999169 l 0.885738,-1.776932 -0.210577,-0.153224 c -1.208628,-0.879432 -1.79894,-2.220216 -1.581821,-3.592774 0.216544,-1.3689 1.251522,-2.541647 2.594782,-2.940195 0.494296,-0.146654 1.477591,-0.14722 1.974957,-0.001 1.891039,0.555445 3.030821,2.495031 2.555032,4.347943 -0.195178,0.760055 -0.432281,1.149203 -1.095612,1.798222 l -0.621184,0.607772 0.9121,1.838502 c 0.657487,1.32526 0.912109,1.908712 0.912109,2.089969 0,0.396381 -0.250342,0.833562 -0.59198,1.03377 L 45.749943,57.25 h -2.766375 c -2.585524,0 -2.780548,-0.0086 -2.98318,-0.132454 z"
      inkscape:connector-curvature="0"
      sodipodi:nodetypes="ccccccccccccsccscc"/>
</svg>
