<?xml version="1.0" encoding="UTF-8" standalone="no"?>
<svg
   xmlns:dc="http://purl.org/dc/elements/1.1/"
   xmlns:cc="http://creativecommons.org/ns#"
   xmlns:rdf="http://www.w3.org/1999/02/22-rdf-syntax-ns#"
   xmlns:svg="http://www.w3.org/2000/svg"
   xmlns="http://www.w3.org/2000/svg"
   xmlns:xlink="http://www.w3.org/1999/xlink"
   xmlns:sodipodi="http://sodipodi.sourceforge.net/DTD/sodipodi-0.dtd"
   xmlns:inkscape="http://www.inkscape.org/namespaces/inkscape"
   width="128"
   height="128"
   id="svg3003"
   version="1.1"
   inkscape:version="0.48.4 r9939"
   sodipodi:docname="harbour-foilpics.svg">
  <defs
     id="defs3005">
    <linearGradient
       id="SVGID_1_"
       gradientUnits="userSpaceOnUse"
       x1="43"
       y1="0.30000001"
       x2="43"
       y2="85.699997">
      <stop
         offset="0"
         style="stop-color:#f57c00;stop-opacity:1;"
         id="stop6" />
      <stop
         offset="0.99510002"
         style="stop-color:#e65100;stop-opacity:1;"
         id="stop8" />
    </linearGradient>
    <linearGradient
       gradientTransform="matrix(1.4988285,0,0,1.4988285,-0.4496485,923.91253)"
       y2="85.699997"
       x2="43"
       y1="0.30000001"
       x1="43"
       gradientUnits="userSpaceOnUse"
       id="linearGradient3015"
       xlink:href="#SVGID_1_"
       inkscape:collect="always" />
  </defs>
  <metadata
     id="metadata3008">
    <rdf:RDF>
      <cc:Work
         rdf:about="">
        <dc:format>image/svg+xml</dc:format>
        <dc:type
           rdf:resource="http://purl.org/dc/dcmitype/StillImage" />
        <dc:title />
      </cc:Work>
    </rdf:RDF>
  </metadata>
  <g
     inkscape:label="Layer 1"
     inkscape:groupmode="layer"
     id="layer1"
     transform="translate(0,-924.36218)">
    <path
       inkscape:connector-curvature="0"
       style="fill:url(#linearGradient3015)"
       d="M 63.999977,924.36218 C 28.653105,924.36218 0,953.01678 0,988.36215 c 0,0.61153 0,61.86725 0,61.86725 0,1.178 0.9547538,2.1328 2.132833,2.1328 H 125.86563 c 1.17807,0 2.13283,-0.9548 2.13283,-2.1328 0,0 0,-61.31418 0,-61.86725 9.1e-4,-35.34537 -28.651603,-63.99997 -63.998483,-63.99997 z"
       id="path10" />
    <circle
       transform="matrix(4,0,0,4,-32,908.36218)"
       style="fill:#fff9c4"
       sodipodi:ry="3"
       sodipodi:rx="3"
       sodipodi:cy="16"
       sodipodi:cx="30"
       cx="30"
       cy="16"
       r="3"
       id="circle8"
       d="m 33,16 c 0,1.656854 -1.343146,3 -3,3 -1.656854,0 -3,-1.343146 -3,-3 0,-1.656854 1.343146,-3 3,-3 1.656854,0 3,1.343146 3,3 z" />
    <polygon
       transform="matrix(3.8461538,0,0,5.6274152,-16.76923,862.91231)"
       style="fill:#942a09"
       points="17,17.9 8,31 26,31 "
       id="polygon10" />
    <polygon
       transform="matrix(3.8461538,0,0,3.8461538,-16.76923,918.13141)"
       style="fill:#bf360c"
       points="34,31 28,23.5 22,31 "
       id="polygon12" />
  </g>
</svg>
