<?xml version="1.0" encoding="UTF-8" standalone="no"?>
<!-- Created with Inkscape (http://www.inkscape.org/) -->

<svg
   xmlns:dc="http://purl.org/dc/elements/1.1/"
   xmlns:cc="http://creativecommons.org/ns#"
   xmlns:rdf="http://www.w3.org/1999/02/22-rdf-syntax-ns#"
   xmlns:svg="http://www.w3.org/2000/svg"
   xmlns="http://www.w3.org/2000/svg"
   xmlns:sodipodi="http://sodipodi.sourceforge.net/DTD/sodipodi-0.dtd"
   xmlns:inkscape="http://www.inkscape.org/namespaces/inkscape"
   width="86"
   height="86"
   id="svg3028"
   version="1.1"
   inkscape:version="0.92.3 (unknown)"
   sodipodi:docname="harbour-foilnotes.svg"
   inkscape:export-filename="/home/slava/projects/jolla/harbour-foilnotes/icons/256x256/harbour-foilnotes.png"
   inkscape:export-xdpi="96"
   inkscape:export-ydpi="96">
  <sodipodi:namedview
     pagecolor="#ffffff"
     bordercolor="#666666"
     borderopacity="1"
     objecttolerance="10"
     gridtolerance="10"
     guidetolerance="10"
     inkscape:pageopacity="0"
     inkscape:pageshadow="2"
     inkscape:window-width="968"
     inkscape:window-height="664"
     id="namedview33"
     showgrid="false"
     inkscape:zoom="2.744186"
     inkscape:cx="42.635593"
     inkscape:cy="72.152542"
     inkscape:window-x="0"
     inkscape:window-y="0"
     inkscape:window-maximized="0"
     inkscape:current-layer="layer1" />
  <defs
     id="defs3030">
    <linearGradient
       id="SVGID_1_"
       gradientUnits="userSpaceOnUse"
       x1="12.6445"
       y1="73.151901"
       x2="85.038597"
       y2="0.75779998">
      <stop
         offset="0"
         style="stop-color:#f57c00;stop-opacity:1;"
         id="stop16" />
      <stop
         offset="1"
         style="stop-color:#e65100;stop-opacity:1;"
         id="stop18" />
    </linearGradient>
    <linearGradient
       id="SVGID_2_"
       gradientUnits="userSpaceOnUse"
       x1="18.104601"
       y1="32.648602"
       x2="67.516998"
       y2="-16.7638">
      <stop
         offset="0"
         style="stop-color:#942a09;stop-opacity:1;"
         id="stop25" />
      <stop
         offset="0.9946"
         style="stop-color:#c8390c;stop-opacity:1;"
         id="stop27" />
    </linearGradient>
  </defs>
  <metadata
     id="metadata3033">
    <rdf:RDF>
      <cc:Work
         rdf:about="">
        <dc:format>image/svg+xml</dc:format>
        <dc:type
           rdf:resource="http://purl.org/dc/dcmitype/StillImage" />
        <dc:title></dc:title>
      </cc:Work>
    </rdf:RDF>
  </metadata>
  <g
     inkscape:label="Layer 1"
     inkscape:groupmode="layer"
     id="layer1"
     transform="translate(0,-966.36218)">
    <g
       transform="translate(0,966.36218)"
       id="g28">
      <rect
         y="0"
         x="0"
         style="opacity:0;fill:#ffffff"
         width="86"
         height="86"
         id="rect10" />
      <g
         id="g16">
        <path
           inkscape:connector-curvature="0"
           style="fill:#ffc8a0"
           d="m 41.283,85.606 c -0.195,-0.009 -0.407,-0.02 -0.635,-0.033 0.208,0.015 0.422,0.023 0.635,0.033 z"
           id="path7" />
        <path
           inkscape:connector-curvature="0"
           style="fill:#ffc8a0"
           d="m 41.672,85.623 c 0.379,0.01 0.757,0.029 1.139,0.029 -0.526,0 -1.028,-0.021 -1.528,-0.045 0.14,0.006 0.266,0.011 0.389,0.016 z"
           id="path9" />
        <path
           inkscape:connector-curvature="0"
           style="fill:#ffc8a0"
           d="m 0.237,45.164 c -0.013,-0.228 -0.024,-0.44 -0.033,-0.635 0.01,0.212 0.019,0.426 0.033,0.635 z"
           id="path11" />
        <path
           inkscape:connector-curvature="0"
           style="fill:#ffc8a0"
           d="m 0.188,44.139 c 0.005,0.123 0.01,0.249 0.016,0.389 C 0.18,44.028 0.159,43.526 0.159,43 c 0,0.382 0.019,0.759 0.029,1.139 z"
           id="path13" />
      </g>
      <path
         inkscape:connector-curvature="0"
         style="fill:url(#SVGID_1_)"
         d="m 85.462,1.77 c 0,-0.785 -0.636,-1.422 -1.422,-1.422 l -82.459,0 c -0.785,0 -1.422,0.637 -1.422,1.422 l 0,41.23 c 0,23.556 19.096,42.651 42.651,42.651 22.234233,0 42.652,-19.069019 42.652,-42.651 z"
         id="path20"
         sodipodi:nodetypes="sssssccs" />
      <g
         id="g22">
        <path
           inkscape:connector-curvature="0"
           style="fill:url(#SVGID_2_)"
           d="M 84.041,0.349 H 1.581 c -0.785,0 -1.422,0.637 -1.422,1.422 V 14.704 H 85.462 V 1.77 c 0,-0.785 -0.636,-1.421 -1.421,-1.421 z"
           id="path29" />
      </g>
      <g
         style="opacity:0.4"
         id="g31">
        <rect
           x="10.834"
           y="62.912998"
           style="opacity:1;fill:#bf360c;fill-opacity:1"
           width="64.147003"
           height="1.872"
           id="rect33" />
        <rect
           x="10.834"
           y="53.554001"
           style="opacity:1;fill:#bf360c;fill-opacity:1"
           width="64.147003"
           height="1.872"
           id="rect35" />
        <path
           inkscape:connector-curvature="0"
           style="fill:#bf360c;fill-opacity:1"
           d="m 14.713,75.079 55.674114,0 c 0.871724,-0.763785 1.374274,-1.214581 2.051635,-1.872 L 12.7,73.207 c 0.594,0.629 1.425,1.357 2.013,1.872 z"
           id="path37"
           sodipodi:nodetypes="ccccc" />
        <rect
           x="10.834"
           y="44.194"
           style="opacity:1;fill:#bf360c;fill-opacity:1"
           width="64.147003"
           height="1.872"
           id="rect39" />
        <rect
           x="10.834"
           y="24.540001"
           style="opacity:1;fill:#bf360c;fill-opacity:1"
           width="64.147003"
           height="1.872"
           id="rect41" />
        <rect
           x="10.834"
           y="34.834999"
           style="opacity:1;fill:#bf360c;fill-opacity:1"
           width="64.147003"
           height="1.872"
           id="rect43" />
      </g>
    </g>
    <path
       style="opacity:0.62000002;fill:#fff9c4;fill-opacity:1;stroke:none;stroke-width:0.79877543"
       d="m 36.007015,1032.4731 c -4.057597,-0.1066 -5.759118,-0.3766 -7.7959,-1.2363 -1.094041,-0.4619 -2.512881,-1.5742 -2.891565,-2.267 -0.745608,-1.364 -1.228016,-5.0206 -1.24861,-9.464 -0.0252,-5.4378 -0.356554,-8.8607 0.666781,-11.8337 0.322176,-0.9359 0.636656,-1.4735 2.421607,-1.9242 1.784949,-0.4507 3.168704,-0.3061 3.168704,-0.3061 l 0.748683,-2.6294 c 0.473667,-1.6635 0.699204,-2.874 1.846242,-4.7537 2.116149,-3.46789 3.560433,-4.85844 7.90764,-5.30172 4.244904,-0.43284 7.368799,-0.0771 8.925322,0.41107 2.495384,0.78262 4.836671,1.55605 6.301439,5.33647 0.325107,0.839 0.535408,2.26978 0.731365,4.47408 0.02597,0.3202 0.330445,2.3077 0.531116,2.3983 0.902899,0.4069 2.723699,0.2557 4.439063,2.1281 0.977916,1.0675 1.551685,2.5546 1.970474,6.0173 0.354401,2.9302 0.36264,10.9397 0.01339,13.0101 -0.617558,3.6609 -2.019508,5.3527 -4.719271,5.695 -2.350909,0.2979 -15.637508,0.4399 -23.016475,0.2457 z m 20.043944,-3.1255 c 1.264442,-0.077 2.444213,-0.1844 2.621714,-0.239 0.744073,-0.2289 1.451592,-2.7654 1.696757,-6.083 0.289201,-3.9136 -0.463516,-12.2599 -1.207009,-13.3836 -0.212474,-0.3211 -1.47671,-0.9395 -2.363421,-1.156 -0.570774,-0.1393 -1.338108,-0.1979 -2.527299,-0.1929 -1.824599,0.01 -16.055535,0.022 -21.753582,0.1988 -1.357115,0.042 -3.130691,-0.1329 -3.696996,0.6361 -0.566307,0.769 -0.826361,2.3514 -0.931939,4.0162 -0.09402,1.4824 -0.306477,2.628 -0.258949,4.7394 0.08487,3.7699 0.06714,4.9625 0.323935,6.8536 0.358058,2.637 0.554879,3.1434 1.422089,3.6592 0.823534,0.4899 2.694529,0.9572 4.32911,1.0813 1.872784,0.1421 19.559386,0.038 22.34559,-0.1305 z m -14.043816,-3.111 c -1.407842,-0.2446 -2.378562,-0.78 -2.921302,-1.6111 -0.266867,-0.4087 -0.321299,-0.6846 -0.310936,-1.5765 0.011,-0.9464 0.08965,-1.2579 0.632167,-2.5031 l 0.619606,-1.4221 -0.519694,-0.4654 c -0.285833,-0.2559 -0.702978,-0.751 -0.926989,-1.1002 -0.353576,-0.5512 -0.408122,-0.7775 -0.413561,-1.7159 -0.0053,-0.9206 0.04886,-1.1695 0.364968,-1.6763 0.564461,-0.9049 1.786609,-1.8234 3.101326,-2.3309 1.034888,-0.3995 1.237724,-0.4357 2.392929,-0.4285 1.460769,0.01 2.391927,0.2565 3.548337,0.9431 1.415326,0.8405 2.14864,2.1485 2.159789,3.853 0.0087,1.3152 -0.302672,1.9326 -1.357976,2.6934 l -0.823634,0.5938 0.558277,1.3592 c 0.646687,1.5745 0.739619,2.6816 0.298278,3.5533 -0.342778,0.6769 -1.408351,1.4228 -2.362976,1.6539 -0.921127,0.223 -3.205657,0.3249 -4.038609,0.1803 z m 3.067729,-2.7713 c 0.444225,-0.1923 0.361742,-0.7635 -0.380994,-2.6383 -0.367521,-0.9277 -0.66822,-1.8582 -0.66822,-2.0681 0,-0.5055 0.607555,-1.1941 1.522487,-1.7259 l 0.738027,-0.4288 -0.05858,-0.7444 c -0.06419,-0.8152 -0.349063,-1.237 -1.070939,-1.5852 -1.030652,-0.4971 -2.236491,-0.4081 -3.292213,0.2432 -0.568265,0.3506 -1.109219,1.1036 -1.099116,1.5299 0.01353,0.5709 0.436728,1.2369 1.046531,1.6466 1.163471,0.7818 1.28896,1.628 0.580378,3.9134 -0.522177,1.6842 -0.506854,1.5548 -0.212132,1.7932 0.274459,0.2219 2.420432,0.2697 2.894776,0.065 z m 4.950039,-18.1319 3.501965,0.068 c 0,0 -0.114192,-2.0949 -0.321399,-3.6636 -0.207205,-1.5687 0.06234,-3.14622 -1.520828,-4.18855 -1.454687,-0.95765 -4.371528,-2.05304 -8.719166,-1.75225 -5.203477,0.35997 -5.65591,2.43296 -6.266452,3.27725 -0.977941,1.35235 -0.970071,2.12775 -1.394834,4.29975 l -0.236848,1.9698 6.600803,0.022 c 3.705935,0.019 6.871705,0.021 7.035047,0 0.163341,-0.018 0.758111,-0.032 1.321712,-0.033 z"
       id="path4437"
       inkscape:connector-curvature="0"
       sodipodi:nodetypes="ccssszcsssssccsssccccscccszsssccccccsccccccccccccccccccsccccsscsccccczssscccccc" />
  </g>
</svg>
