<?xml version="1.0" encoding="utf-8"?>
<svg
    version="1.1"
    xmlns="http://www.w3.org/2000/svg"
    xmlns:xlink="http://www.w3.org/1999/xlink"
    x="0px"
    y="0px"
    viewBox="0 0 64 64"
    style="enable-background:new 0 0 64 64"
    xml:space="preserve">
  <g style="fill:#ffffff">
    <rect
        style="opacity:0"
        width="64"
        height="64"/>
    <g style="opacity:0.6">
      <path d="M29.7,16l-2.59-2.065C26.273,12.74,24.699,12,22.993,12H12.357C11.161,12,10,13.214,10,14.5V20 h13.091c1.646,0,3.164-0.713,3.971-1.866L29.7,16z"/>
      <path d="M23.091,21H9v-6.5c0-1.832,1.6-3.5,3.357-3.5h10.636c1.967,0,3.809,0.854,4.848,2.238l3.457,2.756 l-3.503,2.835C26.785,20.171,24.999,21,23.091,21z M11,19h12.091c1.322,0,2.53-0.552,3.152-1.439l0.19-0.204l1.67-1.351 l-1.812-1.497C25.64,13.578,24.375,13,22.993,13H12.357C11.765,13,11,13.728,11,14.5V19z"/>
    </g>
    <path d="M51.75,53h-39.5C10.458,53,9,51.542,9,49.75V20.875C9,19.841,9.841,19,10.875,19h8.64 c2.131,0,5.274-0.441,5.796-0.74c0.602-0.486,1.717-1.385,2.441-1.971c1.035-0.837,3.618-1.29,5.524-1.29h18.516 C53.561,15,55,16.439,55,18.208V49.75C55,51.542,53.542,53,51.75,53z M11,21v28.75c0,0.689,0.561,1.25,1.25,1.25h39.5 c0.689,0,1.25-0.561,1.25-1.25V18.208C53,17.542,52.458,17,51.792,17H33.276c-1.967,0-3.841,0.5-4.266,0.844 c-0.727,0.588-1.845,1.489-2.485,2.002C25.433,20.724,20.744,21,19.515,21H11z"/>
  </g>
</svg>
