<?xml version="1.0" encoding="utf-8" standalone="no"?>
<svg version="1.1" viewBox="0 0 64 64" xmlns="http://www.w3.org/2000/svg">
  <g style="fill:#ffffff">
    <rect style="opacity:0" width="64" height="64"/>
    <path d="M 51.75,53 H 12.25 C 10.458,53 9,51.542 9,49.75 V 20.875 C 9,19.841 9.966,19 11,19 h 8.5 c 2.131,0 4.953,-0.489 5.475,-0.788 0.602,-0.486 2,-1.481 2.729,-2.067 C 29.506,14.829 31.37,15 33.276,15 H 51.792 C 53.561,15 55,16.439 55,18.208 V 49.75 C 55,51.542 53.542,53 51.75,53 Z M 11,21 v 28.75 c 0,0.689 0.561,1.25 1.25,1.25 h 39.5 C 52.439,51 53,50.439 53,49.75 V 18.208 C 53,17.542 52.458,17 51.792,17 H 33.276 c -1.967,0 -2.642,-0.36291 -4.41,0.604 -0.727,0.588 -2.276,1.585 -2.916,2.098 C 23.707,21.108 20.729,21 19.5,21 z"/>
    <path style="fill-opacity:0.6;stroke:#ffffff;stroke-width:2" d="M 22.5,20 H 10 l 0,-6 C 10,12.36 11.46,11 13,11 h 9.25 c 3.93,0.17 7.25,4.5 7.25,4.5 0,0 -3.72,4.49 -7,4.5 z"/>
  </g>
</svg>
