<?xml version="1.0" encoding="utf-8" standalone="no"?>
<svg version="1.1" viewBox="0 0 1000 1000" xmlns="http://www.w3.org/2000/svg">
  <defs>
    <linearGradient id="gradient" x1="134" y1="10" x2="868" y2="990" gradientUnits="userSpaceOnUse">
      <stop style="stop-color:#ffffff;stop-opacity:1" offset="0"/>
      <stop style="stop-color:#cccccc;stop-opacity:1" offset="1"/>
    </linearGradient>
  </defs>
  <path style="fill:url(#gradient)" d="M 268,26 V 162 H 150 l -16,16 16,16 H 268 V 376 H 150 l -16,16 16,16 H 268 V 592 H 150 l -16,16 16,16 H 268 V 808 H 150 l -16,16 16,16 h 118 v 134 l 16,16 16,-16 V 840 H 484 V 974 L 499.52317,990 516,974 V 840 h 184 v 134 l 15,16 17,-16 V 840 h 118 l 16,-16 -16,-16 H 732 V 624 h 124 c 3.8,-3.3 6.2,-6.7 10,-10 V 500 386 c -3.8,-3.25 -6.2,-6.75 -10,-10 H 732 V 194 h 118 l 16,-16 -16,-16 H 732 V 26 L 715.43,10 700,26 V 162 H 516 V 26 L 500,10 484,26 V 162 H 300 V 26 L 284.31,10 Z M 484,376 H 300 V 194 h 184 z m 216,0 H 516 V 194 H 700 Z M 484,592 H 300 V 408 h 184 z m 216,0 H 516 V 408 H 700 Z M 816.31,481 c 0,20.2 -15.4,24.8 -15.31,25 l 10,32 h -38 l 9,-32 c 0,0 -14.9,-6.7971 -14.91,-25 0,-15.5 12.4,-25.65 24.61,-25.65 12.2,0 24.2,9.5 24.61,25.65 z M 484,808 H 300 V 624 h 184 z m 216,0 H 516 V 624 h 184 z"/>
</svg>
