<?xml version="1.0" encoding="UTF-8" standalone="no"?>
<svg
    version="1.1"
    xmlns="http://www.w3.org/2000/svg"
    xmlns:xlink="http://www.w3.org/1999/xlink"
    x="0px"
    y="0px"
    width="64px"
    height="64px"
    viewBox="0 0 64 64"
    style="enable-background:new 0 0 64 64"
    xml:space="preserve">
  <g>
    <rect
        style="opacity:0;fill:#ffffff"
        width="64"
        height="64"/>
    <circle
        style="opacity:0.2;fill:#ffffff"
        cx="32"
        cy="32"
        r="24"/>
    <path
        style="fill:#ffffff"
        d="M 32 19 C 31.448 19 31 19.448 31 20 L 31 31 L 20 31 C 19.448 31 19 31.448 19 32 C 19 32.552 19.448 33 20 33 L 31 33 L 31 44 C 31 44.552 31.448 45 32 45 C 32.552 45 33 44.553 33 44 L 33 33 L 44 33 C 44.552 33 45 32.552 45 32 C 45 31.448 44.553 31 44 31 L 33 31 L 33 20 C 33 19.448 32.552 19 32 19 z "/>
  </g>
</svg>
