<?xml version="1.0" encoding="utf-8" standalone="no"?>
<svg version="1.1" viewBox="0 0 64 64" xmlns="http://www.w3.org/2000/svg">
  <g style="fill:#ffffff">
    <rect style="opacity:0" width="64" height="64"/>
    <circle style="opacity:0.2" cx="32" cy="32" r="24"/>
    <path d="M 32 19 C 31.448 19 31 19.448 31 20 L 31 31 L 20 31 C 19.45 31 19 31.45 19 32 C 19 32.55 19.45 33 20 33 L 31 33 L 31 44 C 31 44.55 31.45 45 32 45 C 32.552 45 33 44.55 33 44 L 33 33 L 44 33 C 44.55 33 45 32.55 45 32 C 45 31.45 44.55 31 44 31 L 33 31 L 33 20 C 33 19.448 32.55 19 32 19 z"/>
  </g>
</svg>
