<?xml version="1.0" encoding="utf-8" standalone="no"?>
<svg version="1.1" viewBox="0 0 64 64" xmlns="http://www.w3.org/2000/svg">
  <g style="fill:#ffffff">
    <rect style="opacity:0" width="64" height="64"/>
    <path style="opacity:0.6" d="M 22.9,27.77 40.95,17.56 41,19.83 22.9,30 z"/>
    <path style="opacity:0.6" d="M 22.94,33.96 40.93,44.14 40.76,46.34 22.67,36.11 z"/>
    <path d="m 14,29 v 6 h 6 V 29 Z M 24,25 H 10 V 39 H 24 Z M 12,27 H 22 V 37 H 12 z"/>
    <path d="m 44,14 v 6 h 6 V 14 Z M 40,10 V 24 H 54 V 10 Z m 2,2 H 52 V 22 H 42 z"/>
    <path d="m 44,44 v 6 h 6 V 44 Z M 40,54 H 54 V 40 H 40 Z M 42,42 H 52 V 52 H 42 z"/>
  </g>
</svg>
