<?xml version="1.0" encoding="UTF-8" standalone="no"?>
<svg
   xmlns:dc="http://purl.org/dc/elements/1.1/"
   xmlns:cc="http://creativecommons.org/ns#"
   xmlns:rdf="http://www.w3.org/1999/02/22-rdf-syntax-ns#"
   xmlns:svg="http://www.w3.org/2000/svg"
   xmlns="http://www.w3.org/2000/svg"
   xmlns:sodipodi="http://sodipodi.sourceforge.net/DTD/sodipodi-0.dtd"
   xmlns:inkscape="http://www.inkscape.org/namespaces/inkscape"
   data-name="Layer 1"
   viewBox="0 0 990 256"
   x="0px"
   y="0px"
   version="1.1"
   sodipodi:docname="shrug.svg"
   width="990"
   height="256"
   inkscape:version="0.92.4 (unknown)">
  <path
     d="m 11,11 v 6 h 0.326172 130.906248 v -6 z"
     inkscape:connector-curvature="0"
     sodipodi:nodetypes="cccccc"
     style="fill:#ffffff;fill-opacity:1;stroke-width:0.94984353" />
  <path
     d="M 149.96289,36.078124 144.15625,37.589842 190.59766,216 l 5.80468,-1.51172 z"
     inkscape:connector-curvature="0"
     style="fill:#ffffff;fill-opacity:1" />
  <path
     d="m 198,240 v 6 H 198.32118 328 v -6 z"
     inkscape:connector-curvature="0"
     sodipodi:nodetypes="cccccc"
     style="fill:#ffffff;fill-opacity:1;stroke-width:0.94538701" />
  <path
     d="M 376.1582,33.171875 C 362.28589,51.688512 351.98553,70.338553 345.30273,89.125 l -0.002,0.0078 -0.004,0.0098 c -12.37394,35.51069 -11.3405,74.32142 2.90624,109.12304 7.60619,18.6139 16.93627,34.92103 28.00586,48.88868 l 4.70313,-3.72852 c -10.67706,-13.47235 -19.73382,-29.27024 -27.1543,-47.42969 l -0.002,-0.002 C 340.06542,162.55145 339.07069,125.25993 350.95703,91.134766 l 0.002,-0.0059 c 0.001,-0.0039 0.003,-0.0078 0.004,-0.01172 6.45074,-18.127832 16.43463,-36.243334 29.99805,-54.347657 z"
     inkscape:connector-curvature="0"
     style="fill:#ffffff;fill-opacity:1" />
  <path
     d="m 494.04492,28.730469 -5.77539,1.621093 c 0.001,0.0053 0.002,0.01231 0.004,0.01758 0.0161,0.05651 0.0308,0.128878 0.0469,0.185547 2.65735,9.61058 5.40015,21.690414 7.60742,33.486328 1.96046,10.672786 3.49318,21.145236 4.1211,29.396484 l 5.98437,-0.421875 c -6.4e-4,-0.0099 -0.003,-0.0233 -0.004,-0.0332 h 0.002 c -0.0106,-0.139094 -0.0417,-0.320786 -0.0527,-0.460938 -0.60102,-8.783062 -2.24661,-19.908852 -4.41016,-31.220703 -0.001,-0.0053 -0.003,-0.01032 -0.004,-0.01563 -2.1115,-11.238441 -4.71676,-22.554965 -7.38086,-32.007812 -0.0446,-0.161935 -0.0883,-0.368655 -0.13281,-0.529297 h -0.002 c -0.002,-0.0054 -0.002,-0.01223 -0.004,-0.01758 z m -71.27539,12.230469 -5.36523,2.6875 c 8.42285,17.229905 18.25626,43.731277 21.26953,58.861332 8.9e-4,0.004 0.003,0.0111 0.004,0.0156 l 5.88672,-1.1543 c -8.9e-4,-0.005 -0.003,-0.011 -0.004,-0.0156 h 0.002 c -0.0198,-0.0996 -0.0676,-0.23757 -0.0879,-0.33789 -3.2778,-16.64471 -13.00287,-43.026164 -21.61719,-59.869142 -0.0203,-0.04163 -0.0422,-0.09518 -0.0625,-0.136719 h -0.002 c -0.008,-0.0151 -0.0157,-0.0357 -0.0234,-0.05078 z"
     inkscape:connector-curvature="0"
     style="fill:#ffffff;fill-opacity:1" />
  <path
     d="m 657,240 v 6 h 130 v -6 z"
     inkscape:connector-curvature="0"
     sodipodi:nodetypes="ccccc"
     style="fill:#ffffff;fill-opacity:1;stroke-width:0.94549257" />
  <path
     d="M 838.90625,36.080077 792.50586,214.49023 798.3125,216 844.71289,37.589842 Z"
     inkscape:connector-curvature="0"
     style="fill:#ffffff;fill-opacity:1" />
  <path
     d="m 844,11 v 6 h 0.0155 129.98447 v -6 z"
     inkscape:connector-curvature="0"
     sodipodi:nodetypes="cccccc"
     style="fill:#ffffff;fill-opacity:1;stroke-width:0.99490809" />
  <path
     d="m 578.96484,42.914062 c -0.002,0.0087 -0.005,0.01668 -0.008,0.02539 -0.005,0.01728 -0.009,0.03351 -0.0137,0.05078 -9.50605,29.413681 -21.1647,58.821388 -36.60352,82.037108 -3.8417,5.25941 -7.51658,10.76511 -11.30078,15.59571 -9.5594,11.5474 -20.08402,22.99363 -30.49804,32.14453 -0.003,0.003 -0.006,0.005 -0.01,0.008 -3.25805,2.74173 -6.70789,5.56042 -9.66016,7.82617 -14.8901,9.94916 -28.26673,18.81712 -42.74023,24.67188 -0.20537,0.0811 -0.49187,0.18614 -0.27539,0.10742 l 1.98242,5.66211 c 0.004,-0.001 0.0617,-0.0238 0.0664,-0.0254 v 0.002 c 0.24398,-0.0887 0.19767,-0.0744 0.42968,-0.16601 0.0621,-0.0245 0.18755,-0.077 0.26368,-0.10743 2.53888,-0.88475 20.61424,-7.52925 43.89257,-25.35742 3.30323,-2.49817 6.64469,-5.18748 9.96875,-8.07617 0.003,-0.002 0.005,-0.006 0.008,-0.008 3.3e-4,-2.9e-4 0.002,2.9e-4 0.002,0 9.42116,-8.12845 19.99102,-18.78019 30.5293,-32.08399 0.2786,-0.35042 0.5493,-0.63961 0.82812,-0.99414 2.14017,-2.73204 4.24949,-5.77917 6.375,-8.74414 19.36286,-27.93569 35.16871,-63.647847 42.49805,-90.806641 0.0176,-0.06478 0.039,-0.124621 0.0566,-0.189453 h -0.002 c 0.002,-0.0087 0.006,-0.01667 0.008,-0.02539 z"
     inkscape:connector-curvature="0"
     sodipodi:nodetypes="ccccccccccccccccccccccccccc"
     style="fill:#ffffff;fill-opacity:1" />
  <path
     d="m 615.80288,32.017546 c 13.87231,18.516637 24.17267,37.166677 30.85547,55.953125 l 0.002,0.0078 0.004,0.0098 c 12.37394,35.510689 11.3405,74.321419 -2.90624,109.123049 -7.60619,18.6139 -16.93627,34.92103 -28.00586,48.88868 l -4.70313,-3.72853 c 10.67706,-13.47235 19.73382,-29.27024 27.1543,-47.42968 l 0.002,-0.002 c 13.69024,-33.44267 14.68497,-70.73419 2.79863,-104.859353 l -0.002,-0.0059 c -0.001,-0.0039 -0.003,-0.0078 -0.004,-0.01172 C 634.54731,71.834984 624.56342,53.719482 611,35.61516 Z"
     inkscape:connector-curvature="0"
     style="fill:#ffffff;fill-opacity:1" />
</svg>
