<?xml version="1.0" encoding="utf-8" standalone="no"?>
<svg version="1.1" viewBox="0 0 990 256" xmlns="http://www.w3.org/2000/svg">
  <g style="fill:#ffffff">
    <path d="m 11,11 v 6 0 h 131 v -6 z"/>
    <path d="M 149.96,36.08 144.16,37.59 190.6,216 l 5.8,-1.5 z"/>
    <path d="m 198,240 v 6 H 198.32 328 v -6 z"/>
    <path d="M 376.16,33.17 C 362.29,51.69 352,70.34 345.3,89.12 c -12.37,35.51 -11.34,74.32 2.91,109.12 7.61,18.61 16.94,34.92 28,48.89 l 4.703,-3.73 c -10.68,-13.47 -19.73,-29.27 -27.15,-47.43 C 340,162.55 339.07,125.26 350.96,91.14 c 0,0 0,0 0,0 6.45,-18.13 16.43,-36.24 30,-54.35 z"/>
    <path d="m 417.4,43.65 c 8.42,17.23 18.26,43.73 21.27,58.86 l 5.89,-1.15 C 440.82,83.78 431.48,58.58 422.86,41.15 z"/>
    <path d="m 488.27,30.35 c 0,0 0,0 0,0 3,11.69 5.74,23.5 7.65,33.67 1.97,10.67 3.49,21.14 4.12,29.4 l 5.98,-0.42 c -1.06,-11.21 -2.69,-22.35 -4.46,-31.68 -2.46,-11.2 -4.82,-22.75 -7.52,-32.55 0,0 -5.78,1.59 -5.78,1.57 z"/>
    <path d="m 578.94,43 c -9.5,29.41 -21.17,58.82 -36.6,82 -3.84,5.26 -7.5,10.77 -11.3,15.6 -9.56,11.55 -20,23 -30.5,32.14 -3.28,2.7 -6.64,5.5 -9.67,7.83 -14.79,9.18 -29.62,19.25 -43,24.78 l 1.98,5.66 0.76,-0.3 c 2.54,-0.88 20.61,-7.53 43.89,-25.36 3.3,-2.5 6.64,-5.10 9.97,-8.08 9.42,-8.13 20,-18.8 30.53,-32.082 0,0 5.1,-6.81 7.2,-9.74 19.36,-27.94 35.17,-63.65 42.5,-90.81 z"/>
    <path d="m 615.8,32.02 c 13.87,18.52 24.17,37.17 30.85,55.95 c 12.37,35.51 11.34,74.32 -2.9,109.12 -7.6,18.61 -16.94,34.92 -28,48.89 l -4.7,-3.73 c 10.68,-13.47 19.73,-29.27 27.15,-47.43 c 13.69,-33.44 14.68,-70.73 2.8,-104.86 C 634.55,71.83 624.56,53.72 611,35.61 z"/>
    <path d="m 657,240 v 6 h 130 v -6 z"/>
    <path d="M 838.9,36.08 792.5,214.49 798.31,216 844.71,37.59 z"/>
    <path d="m 844,11 v 6 h 0 130 v -6 z"/>
  </g>
</svg>
